<?xml version="1.0" standalone="no"?>
<!DOCTYPE svg PUBLIC "-//W3C//DTD SVG 20010904//EN"
 "http://www.w3.org/TR/2001/REC-SVG-20010904/DTD/svg10.dtd">
<svg version="1.0" xmlns="http://www.w3.org/2000/svg"
 width="2640.000000pt" height="2640.000000pt" viewBox="0 0 2640.000000 2640.000000"
 preserveAspectRatio="xMidYMid meet">
<metadata>
Created by potrace 1.11, written by Peter Selinger 2001-2013
</metadata>
<g transform="translate(0.000000,2640.000000) scale(0.100000,-0.100000)"
fill="#000000" stroke="none">
<path d="M24393 16662 c-5 -4 -9 -15 -7 -25 1 -11 -8 -23 -25 -32 -15 -7 -33
-20 -40 -29 -7 -8 -31 -24 -54 -36 -23 -12 -49 -31 -59 -42 -10 -12 -18 -17
-18 -13 0 4 -9 0 -20 -10 -11 -10 -20 -14 -20 -10 0 4 -8 1 -17 -7 -17 -14
-61 -39 -129 -72 -31 -15 -33 -14 -63 14 -17 17 -28 30 -25 30 3 0 -8 12 -25
26 -17 14 -36 22 -42 18 -7 -4 -9 -3 -5 4 3 6 -7 16 -24 24 -16 7 -30 16 -30
20 0 5 -11 8 -24 8 -14 0 -27 4 -30 9 -3 4 -20 12 -38 16 -44 11 -318 13 -318
3 0 -4 -11 -8 -24 -8 -14 0 -28 -4 -31 -10 -3 -5 -17 -10 -31 -10 -13 0 -24
-4 -24 -8 0 -5 -16 -14 -35 -22 -19 -8 -35 -17 -35 -21 0 -5 -16 -16 -35 -25
-19 -9 -35 -21 -35 -26 0 -6 -6 -8 -12 -6 -7 3 -21 -4 -30 -14 -10 -10 -16
-18 -13 -18 3 0 -10 -13 -28 -30 -59 -54 -66 -63 -62 -71 3 -4 -3 -14 -12 -21
-10 -7 -19 -20 -21 -28 -2 -8 -8 -16 -13 -18 -5 -2 -9 -11 -9 -21 0 -9 -5 -22
-12 -29 -7 -7 -9 -12 -5 -12 4 0 1 -13 -7 -29 -9 -16 -12 -31 -9 -34 3 -4 0
-13 -6 -21 -17 -20 -17 -221 -1 -241 7 -9 10 -18 7 -22 -4 -3 -1 -15 5 -27 7
-11 11 -25 10 -29 -1 -4 4 -10 12 -13 8 -3 12 -14 8 -27 -3 -12 -2 -19 3 -15
11 11 58 -41 51 -58 -3 -8 -2 -13 3 -9 5 3 11 1 13 -4 1 -5 9 -11 17 -13 8 -2
28 -17 46 -35 18 -17 36 -29 39 -26 3 4 6 1 6 -5 0 -7 9 -12 20 -12 11 0 20
-5 20 -11 0 -6 6 -9 14 -6 8 3 22 0 31 -7 10 -7 38 -11 63 -10 25 2 54 -2 66
-8 27 -15 104 -17 110 -2 2 6 25 10 53 10 26 -1 57 3 68 8 11 6 22 11 25 12
12 3 49 18 97 41 29 13 56 24 60 24 4 0 12 7 16 14 4 8 23 22 42 31 19 9 33
19 32 23 -5 9 82 89 89 82 3 -3 4 -1 3 4 -5 17 11 53 25 58 16 6 48 66 41 77
-3 4 2 10 10 13 8 4 12 15 10 27 -2 11 0 20 6 20 5 0 9 20 9 44 0 25 4 47 9
50 11 7 12 137 1 151 -4 6 -10 30 -13 55 -6 44 -4 48 31 78 56 49 60 52 77 52
8 0 15 5 15 11 0 5 4 8 9 4 5 -3 17 5 25 17 9 12 16 18 16 13 0 -5 5 -4 12 3
7 7 20 12 30 12 10 0 18 5 18 10 0 6 7 10 15 10 8 0 15 5 15 11 0 5 4 8 9 5 5
-3 20 3 34 14 14 11 30 20 36 20 6 0 11 5 11 11 0 5 4 8 8 5 5 -3 20 1 34 8
16 9 31 10 42 4 12 -7 16 -5 16 7 0 8 4 15 8 15 5 0 9 7 9 15 0 8 -4 15 -9 15
-4 0 -8 9 -8 20 0 20 -36 63 -56 67 -5 1 -15 -1 -21 -5z"/>
<path d="M1908 16284 c-2 -1 -36 -5 -76 -8 -41 -4 -90 -9 -110 -13 -21 -3 -46
-7 -57 -8 -18 -2 -63 -10 -120 -22 -11 -2 -31 -6 -45 -9 -14 -2 -32 -7 -40
-10 -8 -3 -25 -8 -38 -10 -39 -8 -207 -65 -216 -75 -6 -5 -17 -9 -25 -9 -45 0
-320 -161 -451 -264 -62 -48 -222 -203 -265 -256 -40 -50 -135 -179 -135 -184
0 -3 -14 -25 -30 -50 -52 -76 -173 -338 -173 -373 0 -7 -3 -13 -7 -13 -4 0 -7
-6 -8 -12 -1 -16 -5 -30 -22 -88 -8 -25 -14 -47 -15 -50 0 -3 -6 -27 -13 -55
-6 -27 -14 -62 -17 -77 -3 -16 -7 -38 -9 -50 -23 -121 -31 -242 -30 -463 1
-217 3 -256 23 -385 24 -157 36 -208 85 -360 47 -146 124 -315 187 -408 16
-24 29 -46 29 -50 0 -4 10 -19 23 -34 12 -15 33 -44 47 -63 103 -146 380 -405
499 -467 14 -7 28 -16 31 -20 7 -9 229 -123 255 -131 11 -3 64 -21 118 -41 83
-29 154 -49 262 -72 11 -2 36 -6 55 -9 19 -3 44 -7 55 -9 129 -25 638 -26 760
-2 12 2 48 8 80 12 33 4 62 8 65 9 3 1 30 5 60 10 59 9 69 11 73 15 1 1 11 3
22 5 57 11 74 15 125 30 30 9 62 18 70 20 140 36 402 156 538 246 41 27 79 49
84 49 5 0 12 10 16 23 10 25 10 1552 1 1561 -3 4 -66 6 -140 6 -168 -1 -144
-1 -279 0 -63 1 -119 1 -125 0 -5 -2 -14 -2 -19 -1 -13 3 -289 3 -301 1 -5 -1
-14 -2 -19 -1 -13 3 -288 3 -301 1 -5 -1 -20 -1 -32 -1 -11 1 -24 -3 -28 -8
-9 -16 -10 -94 -2 -109 5 -6 5 -12 0 -12 -9 0 -8 -102 1 -125 3 -8 1 -17 -4
-20 -6 -3 -6 -15 0 -29 5 -13 6 -26 3 -29 -9 -10 30 -65 55 -79 19 -10 101
-13 358 -13 l334 0 0 -25 c1 -33 1 -807 1 -842 -1 -24 -10 -32 -60 -58 -73
-36 -320 -132 -338 -130 -2 0 -4 0 -5 -1 -6 -2 -39 -9 -128 -28 -160 -36 -268
-46 -480 -45 -156 0 -243 6 -300 19 -14 3 -34 8 -45 9 -61 11 -93 19 -177 47
-150 50 -293 127 -413 222 -64 51 -235 228 -235 244 0 6 -4 13 -8 15 -29 11
-191 307 -192 349 0 8 -5 20 -10 25 -6 6 -13 23 -16 39 -3 15 -9 35 -13 44 -5
9 -15 43 -22 76 -7 33 -14 65 -15 70 -6 23 -19 108 -31 195 -15 113 -5 612 13
641 2 4 6 24 8 45 12 111 75 300 147 447 57 115 189 304 203 290 3 -4 6 -2 6
3 0 10 55 74 64 74 2 0 23 18 46 40 81 78 353 240 403 240 8 0 17 3 21 7 3 4
12 8 19 10 7 1 44 12 82 23 156 46 314 63 565 63 220 -1 337 -8 440 -28 14 -3
44 -7 68 -10 24 -3 64 -10 90 -16 26 -6 58 -13 72 -15 32 -7 194 -52 240 -67
22 -8 36 -19 37 -31 0 -10 4 -57 7 -105 3 -47 8 -105 11 -128 2 -24 7 -87 10
-140 6 -112 10 -140 26 -169 14 -27 58 -52 87 -49 12 1 22 -1 22 -4 0 -3 34
-6 75 -6 41 0 75 3 75 7 0 4 13 3 29 -2 15 -4 34 -4 41 0 7 4 20 6 29 3 15 -4
16 33 16 471 0 261 -2 476 -5 479 -3 2 -41 16 -85 32 -44 15 -89 31 -100 36
-20 8 -137 47 -165 54 -8 2 -42 12 -75 21 -33 9 -68 18 -78 19 -9 2 -21 6 -25
9 -8 5 -48 14 -87 21 -11 1 -47 10 -80 19 -33 8 -78 18 -100 21 -48 7 -83 13
-110 19 -23 4 -174 24 -250 32 -51 6 -463 13 -467 8z"/>
<path d="M25162 15978 c-52 -14 -79 -51 -87 -121 -4 -34 -9 -71 -11 -82 -2
-11 -6 -45 -9 -75 -3 -31 -7 -66 -10 -80 -7 -35 -15 -91 -20 -136 -6 -59 -21
-171 -30 -225 -3 -14 -7 -51 -10 -81 -3 -30 -8 -65 -10 -78 -3 -14 -7 -42 -11
-65 -3 -22 -6 -41 -7 -42 -2 -1 -33 -5 -142 -18 -84 -9 -131 -15 -155 -19 -14
-3 -56 -7 -95 -11 -38 -4 -72 -8 -74 -10 -9 -9 1 -249 11 -265 25 -39 47 -44
243 -46 105 -1 192 -3 195 -3 3 -1 5 -414 5 -919 1 -504 4 -948 8 -987 20
-194 114 -379 237 -465 19 -13 37 -27 40 -30 11 -14 123 -61 182 -77 91 -24
437 -23 478 2 3 2 17 6 31 8 118 22 318 121 421 209 l27 23 -89 137 c-89 138
-107 155 -155 146 -10 -2 -29 -12 -41 -24 -28 -25 -157 -89 -210 -103 -63 -17
-181 -8 -241 18 -78 34 -142 113 -159 195 -15 70 -17 196 -18 991 l0 879 412
0 413 -1 -1 46 c0 25 0 54 0 64 1 22 1 123 0 142 0 8 0 23 0 33 1 50 -1 76 -5
80 -2 2 -187 5 -412 6 l-407 1 -2 485 c0 267 -2 490 -3 495 -1 12 -244 14
-289 3z"/>
<path d="M9117 15094 c-1 -2 -25 -5 -52 -8 -228 -24 -476 -187 -623 -411 -15
-22 -29 -42 -32 -45 -9 -9 -29 -43 -61 -104 -16 -32 -32 -56 -35 -54 -2 3 -6
36 -8 74 -3 38 -7 101 -10 139 -3 39 -8 107 -11 153 -9 117 -24 162 -63 188
-32 22 -39 22 -411 22 l-379 0 0 -138 c0 -117 2 -142 18 -168 18 -29 60 -48
125 -57 11 -1 38 -6 60 -10 22 -4 47 -9 55 -10 27 -5 74 -16 117 -27 l41 -10
0 -1017 c0 -559 -2 -1023 -4 -1032 -2 -9 -10 -16 -17 -17 -35 -2 -102 -14
-109 -18 -5 -3 -25 -8 -46 -10 -20 -3 -45 -7 -54 -10 -10 -3 -30 -7 -45 -10
-131 -23 -142 -39 -142 -219 l0 -133 30 -4 c16 -3 29 -2 29 1 0 8 79 6 86 -2
3 -3 17 -2 30 3 14 6 26 6 29 0 3 -6 15 -6 30 0 15 6 27 6 30 0 3 -6 15 -6 29
0 13 5 27 6 30 3 3 -3 35 -6 71 -6 36 0 68 3 71 6 3 3 16 2 29 -3 13 -5 25 -6
28 -3 3 3 27 5 54 4 26 -1 56 -1 66 -1 9 0 24 0 32 0 8 0 22 0 30 0 8 0 22 0
30 0 8 0 22 0 30 0 8 0 21 0 28 0 6 0 59 0 117 0 58 -1 108 -1 113 0 20 4 78
3 83 -3 3 -3 17 -2 30 3 13 5 26 5 29 1 3 -5 20 -5 39 -1 19 4 37 5 40 3 2 -3
22 -6 44 -6 28 -2 39 2 40 13 4 51 2 234 -3 253 -16 57 -28 68 -90 82 -8 2
-185 37 -250 50 -11 2 -29 6 -40 9 -11 2 -22 5 -25 5 -3 1 -5 322 -5 714 1
768 -3 707 50 820 70 147 214 317 329 386 59 35 151 75 201 87 63 14 291 13
361 -2 63 -14 92 -19 149 -28 64 -10 92 34 111 174 3 25 8 54 10 65 11 53 17
92 18 113 0 12 2 22 6 22 3 0 6 17 8 38 l2 39 -67 30 c-38 17 -81 34 -98 39
-16 4 -32 8 -35 9 -37 11 -264 27 -273 19z"/>
<path d="M11466 15083 c-1 -2 -23 -7 -47 -12 -115 -24 -121 -26 -224 -77 -120
-59 -211 -128 -323 -242 -50 -52 -94 -93 -96 -91 -2 2 -6 29 -10 59 -3 30 -8
66 -10 79 -3 13 -8 48 -12 79 -3 30 -8 63 -9 71 -2 9 -4 18 -4 21 -2 14 -51
60 -72 68 -13 5 -192 10 -396 10 l-373 0 -1 -21 c-4 -116 1 -247 9 -267 9 -24
52 -70 52 -56 0 4 8 2 19 -3 10 -6 33 -12 52 -14 19 -3 84 -15 144 -27 61 -12
115 -23 120 -24 6 0 12 -4 15 -8 4 -5 5 -2038 1 -2059 0 -3 -7 -6 -13 -6 -15
0 -72 -10 -105 -18 -51 -11 -71 -15 -128 -25 -85 -15 -120 -28 -141 -51 -23
-26 -24 -31 -26 -179 l-2 -125 43 -1 c23 -1 45 -4 47 -7 3 -3 19 -1 35 3 16 5
29 5 29 0 0 -4 15 -4 34 0 19 4 40 4 47 -1 7 -4 20 -4 29 1 9 5 22 5 28 1 7
-4 35 -5 62 -1 27 4 55 3 62 -1 6 -4 19 -4 28 1 9 5 22 5 30 0 8 -5 21 -5 30
0 9 5 22 5 30 0 8 -5 21 -5 31 0 9 5 19 7 22 4 5 -5 199 -8 220 -4 20 4 78 3
83 -3 3 -3 17 -2 30 3 14 6 26 6 29 0 3 -6 15 -6 30 0 15 6 27 6 30 0 3 -6 15
-6 29 0 13 5 27 6 30 3 3 -3 35 -6 71 -6 36 0 68 3 71 6 3 3 16 2 29 -3 13 -5
26 -6 29 -3 3 3 18 6 34 5 l28 -1 -1 142 c-2 150 -8 176 -51 195 -12 6 -98 25
-192 43 l-170 33 -1 873 0 872 87 89 c153 155 291 239 442 268 94 18 289 4
334 -23 6 -4 17 -8 23 -9 40 -6 183 -124 183 -150 0 -8 4 -14 9 -14 20 0 85
-176 96 -265 3 -22 8 -56 11 -75 2 -19 5 -473 5 -1009 l1 -973 29 4 c17 3 32
1 35 -3 2 -5 16 -4 29 1 15 6 27 6 30 0 3 -6 15 -6 30 0 15 6 27 6 30 0 3 -6
15 -6 29 0 13 5 27 6 30 3 3 -3 35 -6 71 -6 36 0 68 3 71 6 3 3 16 2 29 -3 13
-5 25 -6 28 -3 3 3 27 5 54 4 26 -1 56 -1 66 -1 9 0 24 0 32 0 8 0 22 0 30 0
8 0 22 0 30 0 8 0 22 0 30 0 30 0 51 0 105 1 30 1 62 0 70 0 35 -3 53 -2 57 3
11 10 4 281 -6 284 -6 2 -11 9 -11 16 0 16 -40 34 -99 46 -25 6 -102 21 -171
35 -69 14 -125 25 -125 25 0 1269 4 1555 20 1610 2 8 6 26 9 40 12 67 69 191
111 239 62 72 142 141 163 141 6 0 12 5 14 10 2 6 44 25 93 41 167 56 389 43
516 -31 125 -73 224 -213 255 -360 4 -19 9 -42 11 -50 13 -63 16 -240 17
-1085 l1 -960 55 -3 c30 -1 63 -2 73 -2 9 0 24 0 32 0 8 0 22 0 30 0 8 0 22 0
30 0 8 0 22 0 30 0 30 0 51 0 105 1 30 1 61 1 68 0 6 -1 19 -1 27 -1 8 0 22 0
30 0 8 0 22 0 30 0 8 0 22 0 30 0 8 0 22 0 30 0 8 0 22 0 30 0 8 0 43 0 78 -1
34 0 67 0 72 1 6 1 13 1 18 0 7 -2 52 -2 115 -1 l37 1 -1 132 c-1 129 -6 161
-28 183 -15 14 -63 32 -106 39 -44 7 -87 15 -125 23 -40 9 -34 8 -90 18 -27 4
-53 8 -57 7 -5 -1 -8 33 -8 76 -1 613 -8 1543 -13 1562 -3 14 -11 58 -17 98
-26 163 -110 360 -199 467 -46 55 -158 160 -187 175 -16 8 -31 17 -34 20 -9 9
-96 49 -140 65 -57 20 -151 42 -220 51 -67 8 -292 13 -304 6 -5 -3 -23 -6 -40
-7 -47 -4 -97 -15 -117 -26 -11 -5 -19 -8 -19 -5 0 3 -28 -7 -62 -21 -236 -95
-405 -249 -504 -460 -28 -61 -44 -78 -44 -48 0 26 -72 179 -115 245 -149 227
-327 322 -608 324 -65 1 -119 0 -121 -1z"/>
<path d="M16016 15083 c-1 -2 -25 -5 -52 -8 -91 -9 -114 -14 -222 -40 -59 -15
-116 -34 -127 -41 -11 -8 -25 -14 -33 -14 -26 0 -208 -94 -287 -148 -71 -49
-155 -116 -222 -178 l-23 -21 33 -64 c66 -132 112 -176 194 -183 51 -4 101 16
203 83 119 78 117 77 200 117 120 58 144 66 255 87 67 12 256 15 300 4 133
-33 203 -69 274 -139 71 -72 128 -184 147 -293 3 -22 9 -49 11 -60 2 -11 6
-71 9 -133 2 -62 5 -116 5 -120 1 -4 0 -11 -1 -17 -1 -5 -1 -38 0 -72 1 -35
-2 -63 -7 -64 -8 -1 -231 -9 -335 -13 -27 0 -48 -3 -48 -6 0 -3 -21 -5 -48 -5
-198 -2 -590 -94 -799 -186 -23 -11 -44 -19 -47 -19 -11 0 -183 -104 -220
-133 -56 -44 -156 -149 -156 -164 0 -7 -3 -13 -7 -13 -12 0 -74 -123 -89 -175
-4 -15 -14 -57 -20 -85 -13 -60 -3 -255 15 -310 5 -14 15 -45 22 -70 15 -49
66 -146 106 -198 98 -130 273 -236 443 -269 69 -13 121 -17 220 -17 133 1 195
8 336 38 62 13 192 65 283 112 106 56 193 117 316 222 39 33 71 59 73 57 4 -3
19 -76 52 -235 14 -74 36 -115 68 -130 22 -10 148 -23 200 -21 6 1 19 1 27 1
8 0 22 0 30 0 8 0 22 0 30 0 8 0 22 0 30 0 8 0 21 0 28 0 6 0 59 0 117 0 58
-1 107 -1 110 0 17 5 90 4 93 -1 1 -4 11 -3 22 1 19 7 21 15 19 131 -1 68 -2
131 -3 140 -2 27 -36 62 -62 65 -13 1 -24 3 -24 4 0 2 -19 6 -60 13 -16 2 -69
12 -116 22 l-86 17 -2 777 c0 427 -3 792 -5 811 -3 19 -7 56 -10 82 -15 119
-69 299 -118 388 -42 75 -100 153 -162 212 -51 49 -204 158 -228 162 -7 1 -20
6 -28 11 -41 26 -175 66 -275 81 -48 7 -343 13 -349 7z m661 -1933 l2 -305
-33 -30 c-105 -95 -127 -114 -172 -147 -130 -95 -271 -161 -389 -183 -192 -35
-402 -18 -502 41 -85 49 -158 146 -179 236 -26 110 -23 215 7 270 5 10 9 25 9
33 0 8 5 15 10 15 6 0 10 5 10 11 0 6 7 17 15 25 8 8 20 23 27 32 33 44 137
113 238 157 53 22 180 64 180 59 0 -3 8 0 18 5 9 5 31 11 47 14 17 3 39 8 50
10 121 28 226 42 400 53 50 3 91 7 92 7 1 1 39 2 85 2 l83 0 2 -305z"/>
<path d="M19617 15084 c-1 -2 -25 -5 -52 -9 -62 -7 -198 -41 -245 -62 -19 -8
-55 -25 -80 -37 -24 -11 -48 -20 -52 -18 -4 1 -8 -2 -8 -8 0 -5 -5 -10 -11
-10 -6 0 -40 -20 -76 -45 -35 -25 -66 -45 -69 -45 -3 0 -11 -6 -18 -12 -8 -7
-35 -32 -62 -54 -27 -23 -73 -65 -102 -94 -29 -29 -55 -51 -57 -49 -2 2 -6 29
-10 59 -31 256 -38 285 -69 315 -31 30 -69 32 -436 31 l-375 -1 0 -115 c0 -63
1 -129 3 -147 5 -44 44 -80 95 -88 23 -4 49 -9 57 -10 8 -2 62 -13 120 -25 58
-12 113 -22 123 -22 14 1 17 -9 17 -61 1 -34 1 -498 1 -1032 l1 -970 -34 -11
c-18 -7 -54 -15 -80 -18 -26 -4 -53 -9 -60 -11 -7 -2 -24 -6 -38 -9 -87 -14
-147 -29 -161 -39 -36 -27 -45 -68 -44 -197 l0 -125 38 -2 c21 0 41 -3 43 -6
3 -3 19 -1 35 3 16 5 29 5 29 0 0 -4 16 -4 35 0 19 4 35 4 35 0 0 -5 13 -5 30
0 16 5 32 5 35 1 2 -4 24 -5 48 -1 24 3 52 3 63 0 10 -4 31 -4 47 1 15 4 27 4
27 -1 0 -4 15 -4 34 0 19 4 40 4 47 -1 7 -4 20 -4 29 1 9 5 22 5 29 1 7 -5 29
-5 50 -1 20 4 46 4 57 0 10 -4 31 -4 47 1 15 4 27 4 27 -1 0 -4 16 -4 35 0 19
4 35 4 35 0 0 -5 13 -5 30 0 16 5 32 5 35 1 2 -4 24 -5 48 -1 24 3 52 3 63 0
10 -4 31 -4 47 1 15 4 27 4 27 -1 0 -4 15 -4 34 0 19 4 40 4 47 -1 7 -4 20 -4
30 1 9 5 19 6 23 3 9 -10 79 -4 86 7 3 4 5 66 5 137 -1 160 -12 185 -89 205
-28 7 -60 13 -71 14 -11 0 -27 4 -35 7 -8 4 -26 8 -40 10 -14 2 -60 10 -102
17 l-78 14 0 55 c-1 31 -1 417 -1 858 l0 803 48 48 c64 63 157 142 215 181 54
36 198 110 225 116 10 2 30 8 45 13 87 34 312 49 401 26 26 -7 47 -10 47 -8 0
10 135 -48 174 -75 83 -57 166 -173 191 -266 5 -16 9 -32 10 -35 1 -3 5 -23
10 -45 4 -22 10 -49 13 -60 3 -11 7 -470 8 -1019 3 -802 6 -1001 16 -1007 7
-5 14 -4 16 0 2 5 16 6 33 1 16 -5 29 -6 29 -2 0 8 78 7 86 -1 3 -3 17 -2 30
3 14 6 26 6 29 0 3 -6 15 -6 30 0 15 6 27 6 30 0 3 -6 15 -6 29 0 13 5 27 6
30 3 7 -8 135 -8 142 0 3 3 16 2 29 -3 13 -5 25 -6 28 -3 8 7 106 8 113 0 4
-3 14 -2 23 3 10 5 23 5 31 0 8 -5 21 -5 30 0 9 5 22 5 29 0 8 -4 27 -4 42 0
16 5 31 5 33 1 3 -4 19 -6 35 -3 37 5 38 10 31 169 -5 110 -8 125 -29 147 -13
14 -26 25 -30 24 -3 -1 -17 2 -31 5 -14 4 -37 9 -52 12 -27 5 -50 9 -113 21
-16 3 -59 12 -95 20 l-65 15 -1 747 c0 667 -4 859 -20 934 -2 13 -7 37 -10 53
-59 335 -283 621 -564 721 -59 21 -134 40 -190 49 -43 7 -297 14 -303 9z"/>
<path d="M3849 15036 c-2 -24 2 -252 4 -268 7 -40 53 -69 132 -82 17 -3 41 -7
55 -10 13 -3 41 -8 61 -11 20 -3 50 -10 68 -15 17 -5 34 -9 36 -9 3 0 18 -2
33 -5 l27 -6 0 -768 c1 -422 4 -798 8 -837 6 -57 37 -219 50 -260 2 -5 7 -21
11 -35 5 -14 19 -49 32 -78 13 -29 24 -54 24 -56 0 -6 62 -107 89 -146 40 -57
141 -150 211 -195 59 -38 177 -92 219 -100 9 -1 34 -8 56 -13 121 -31 384 -35
505 -7 14 4 30 7 35 8 6 2 16 6 23 10 6 5 12 6 12 3 0 -18 299 114 308 136 2
4 8 8 13 8 24 0 161 110 277 222 28 28 52 47 53 42 0 -5 2 -18 5 -29 4 -22 11
-73 19 -137 3 -24 8 -65 11 -93 3 -27 15 -67 26 -87 20 -34 31 -41 93 -54 19
-4 172 -8 188 -4 19 4 78 3 83 -3 3 -3 17 -2 30 3 14 6 26 6 29 0 3 -6 15 -6
30 0 15 6 27 6 30 0 3 -6 15 -6 29 0 13 5 27 6 30 3 7 -8 135 -8 142 0 3 3 16
2 29 -3 13 -5 26 -6 29 -3 3 4 22 6 41 5 19 -1 37 3 40 9 5 8 7 111 4 261 0
10 -12 30 -27 46 -23 24 -44 31 -147 51 -66 13 -129 25 -140 28 -11 2 -37 7
-57 10 -21 3 -39 11 -39 17 -1 6 -3 558 -4 1226 -1 668 -3 1220 -4 1227 -1 8
-119 11 -457 11 l-455 1 2 -137 c2 -174 14 -202 95 -217 34 -6 53 -9 154 -30
41 -8 85 -17 98 -20 13 -2 32 -7 42 -10 18 -6 19 -34 19 -866 l0 -860 -53 -52
c-85 -83 -125 -117 -135 -117 -5 0 -11 -3 -13 -7 -13 -31 -178 -123 -278 -157
-103 -34 -118 -37 -255 -43 -215 -10 -360 34 -474 143 -34 33 -61 65 -61 71 0
7 -4 13 -9 13 -4 0 -22 30 -39 68 -32 69 -56 159 -67 247 -3 28 -6 483 -6
1012 l-1 962 -459 -1 c-338 0 -459 -3 -460 -12z"/>
<path d="M22946 15042 c-9 -17 1 -269 12 -289 11 -19 72 -71 72 -60 0 4 34 -2
110 -18 14 -3 50 -9 80 -15 145 -27 137 -22 139 -78 1 -26 1 -58 0 -72 0 -14
0 -31 0 -37 2 -29 2 -40 -1 -91 -2 -28 -1 -52 2 -52 6 0 3 -129 -4 -146 -3 -8
-1 -16 3 -19 5 -3 5 -21 1 -40 -4 -19 -4 -37 0 -40 4 -3 4 -21 0 -40 -4 -20
-4 -38 1 -41 5 -3 6 -10 3 -16 -6 -9 -9 -188 -4 -213 1 -5 2 -13 0 -17 -1 -5
-1 -28 -1 -53 0 -25 0 -48 1 -52 2 -5 2 -11 1 -15 -1 -7 -1 -80 0 -108 0 -8
-1 -39 -3 -68 -2 -28 0 -52 3 -52 4 0 3 -17 -1 -38 -3 -20 -3 -49 1 -64 4 -15
3 -43 -1 -63 -4 -19 -4 -37 0 -40 4 -3 4 -21 0 -40 -4 -19 -4 -37 0 -40 4 -3
4 -21 0 -40 -4 -19 -4 -37 1 -40 4 -3 6 -12 3 -20 -8 -21 -10 -175 -3 -175 4
0 4 -15 0 -32 -4 -18 -4 -47 0 -65 3 -18 4 -35 1 -37 -7 -7 -8 -106 -1 -106 3
0 4 -10 2 -23 -3 -14 -12 -23 -24 -24 -11 -1 -44 -7 -72 -13 -75 -15 -95 -19
-167 -31 -139 -24 -156 -48 -155 -225 0 -119 1 -127 20 -131 19 -4 192 -6 208
-3 20 4 78 3 83 -3 3 -3 17 -2 30 3 14 6 26 6 29 0 3 -6 15 -6 30 0 15 6 27 6
30 0 3 -6 15 -6 29 0 13 5 27 6 30 3 3 -3 35 -6 71 -6 36 0 68 3 71 6 3 3 16
2 29 -3 13 -5 25 -6 28 -3 3 3 27 5 54 4 26 -1 56 -1 66 -1 9 0 24 0 32 0 8 0
22 0 30 0 8 0 22 0 30 0 8 0 23 0 33 0 9 0 26 0 37 0 152 -4 225 -4 225 0 0 6
69 5 75 -2 9 -9 55 4 56 16 0 6 1 64 1 129 0 180 -13 198 -157 223 -16 3 -70
14 -119 25 -49 10 -92 17 -94 14 -3 -2 -12 0 -21 4 -15 9 -16 109 -16 1233 1
672 -1 1228 -3 1235 -3 8 -119 11 -458 12 -249 0 -455 -3 -458 -7z"/>
<path d="M21950 12603 c-65 -23 -97 -48 -129 -101 -31 -50 -35 -65 -35 -122 1
-86 17 -132 65 -180 86 -87 265 -83 346 7 53 60 71 158 46 246 -17 59 -49 97
-108 126 -44 22 -151 36 -185 24z"/>
<path d="M21969 11196 c-2 -2 -54 -6 -116 -9 -62 -3 -121 -11 -131 -16 -11 -6
-22 -8 -24 -5 -10 9 -190 -56 -269 -98 -100 -53 -105 -56 -154 -93 -187 -140
-301 -300 -311 -439 -11 -155 104 -227 301 -188 99 19 115 23 180 52 22 9 47
20 55 23 8 4 33 18 55 32 22 14 48 28 58 31 9 4 17 10 17 14 0 4 17 19 38 32
42 29 134 118 177 173 17 21 36 44 43 51 6 7 12 17 12 23 0 6 5 11 10 11 6 0
10 7 10 15 0 8 4 15 10 15 14 0 86 140 92 179 6 44 -20 33 -38 -16 -9 -26 -23
-55 -31 -64 -7 -8 -13 -19 -13 -23 0 -8 -74 -107 -120 -160 -29 -35 -117 -122
-151 -151 -70 -59 -219 -153 -219 -139 0 4 -6 2 -12 -3 -15 -12 -126 -48 -177
-58 -19 -4 -63 -7 -98 -7 -115 0 -163 58 -138 169 21 91 136 243 259 338 14
11 36 28 48 38 82 67 326 184 421 202 9 2 21 6 26 9 18 12 121 21 221 20 111
0 139 -9 191 -56 51 -46 25 -104 -222 -488 -188 -293 -241 -426 -204 -513 17
-42 55 -59 116 -53 49 5 139 42 152 64 4 6 14 12 22 12 7 0 15 3 17 8 2 4 23
24 48 44 57 46 140 125 140 132 0 3 15 20 33 38 18 18 63 70 100 116 69 86 83
91 45 19 -12 -23 -23 -44 -23 -47 -1 -3 -7 -18 -14 -35 -87 -205 -85 -314 7
-331 21 -4 44 -8 53 -10 44 -7 160 76 238 171 31 38 81 130 81 149 0 20 0 20
-17 0 -10 -10 -30 -38 -45 -61 -36 -55 -132 -152 -185 -187 -27 -18 -51 -26
-70 -24 -24 3 -28 7 -26 33 2 46 16 92 58 190 90 211 121 281 247 545 30 63
72 151 92 195 20 44 41 88 47 98 17 31 0 36 -49 12 -50 -24 -50 -23 -178 -277
-19 -37 -40 -73 -47 -80 -6 -7 -32 -40 -57 -73 -24 -33 -48 -64 -52 -70 -31
-39 -78 -101 -108 -141 -19 -26 -42 -54 -50 -63 -8 -9 -26 -32 -40 -51 -25
-36 -163 -176 -215 -220 -126 -105 -203 -137 -254 -105 -12 7 -15 48 -4 59 4
3 8 12 9 19 2 15 93 167 111 185 7 7 13 17 13 21 0 4 9 18 20 31 11 13 20 29
20 36 0 7 3 14 8 16 9 4 52 65 52 74 0 4 11 22 25 40 14 18 25 37 25 42 0 6 4
12 8 14 16 7 125 211 144 273 15 46 18 136 5 159 -21 38 -52 68 -88 86 -39 20
-166 46 -176 36 -3 -3 -11 -1 -18 4 -7 5 -14 8 -16 6z"/>
<path d="M18827 11174 c-2 -2 -41 -6 -88 -8 -96 -5 -188 -19 -274 -42 -33 -9
-64 -17 -70 -18 -48 -13 -71 -20 -80 -25 -5 -3 -14 -6 -20 -7 -24 -5 -152 -57
-229 -94 -46 -22 -88 -40 -94 -40 -6 0 -12 -4 -14 -8 -1 -4 -34 -25 -73 -46
-228 -124 -435 -318 -509 -480 -49 -105 -37 -247 26 -306 32 -31 106 -67 153
-75 55 -10 178 -7 228 6 23 5 51 11 62 13 11 1 30 8 43 15 12 6 22 9 22 6 0
-18 239 123 248 147 2 4 8 8 14 8 18 0 188 182 249 267 63 87 127 186 157 243
76 145 141 251 174 285 45 47 48 60 11 50 -44 -10 -164 -129 -220 -217 -17
-27 -39 -60 -47 -71 -23 -32 -56 -84 -100 -157 -22 -36 -42 -67 -46 -70 -3 -3
-21 -30 -40 -60 -19 -30 -40 -61 -47 -68 -7 -7 -13 -17 -13 -22 0 -17 -176
-187 -233 -224 -90 -59 -194 -102 -267 -111 -3 0 -9 -3 -15 -6 -25 -13 -175 5
-215 26 -61 32 -103 98 -95 150 2 11 6 40 9 64 3 24 11 50 17 57 6 8 9 14 6
14 -12 0 56 115 97 165 59 73 111 123 196 190 41 33 77 62 80 65 9 9 100 70
105 70 3 0 28 15 57 34 47 30 175 99 188 101 3 0 27 11 54 23 27 12 50 22 52
22 1 0 15 5 31 12 15 6 30 12 33 13 3 0 30 9 60 20 30 10 60 20 65 21 6 1 30
7 55 14 69 19 86 21 211 25 136 5 184 -5 220 -46 21 -23 25 -38 22 -67 -6 -56
-23 -102 -56 -152 -47 -69 -166 -179 -194 -180 -7 0 -13 -3 -13 -8 0 -4 -27
-20 -61 -36 -33 -16 -63 -35 -66 -42 -3 -8 -9 -12 -13 -9 -12 7 -33 -23 -25
-36 6 -8 9 -8 15 1 11 18 70 27 120 18 49 -9 120 -53 120 -74 0 -8 4 -14 9
-14 5 0 9 -31 9 -69 0 -86 -32 -156 -109 -236 -85 -89 -186 -128 -266 -104
-35 11 -44 29 -15 29 57 1 95 97 53 139 -29 29 -57 26 -92 -8 -32 -33 -39 -86
-16 -131 17 -34 77 -72 105 -67 12 2 25 1 28 -4 2 -4 10 -6 17 -4 7 2 28 6 49
9 99 15 219 104 296 221 15 22 29 42 32 45 5 5 6 9 18 60 11 51 4 132 -14 166
-32 59 -83 87 -165 90 -39 2 -73 4 -75 6 -2 2 21 12 51 23 30 10 55 22 55 27
0 4 5 8 11 8 16 0 149 83 149 92 0 5 4 8 9 8 5 0 28 19 52 43 76 77 113 198
79 261 -21 40 -86 66 -173 70 -42 2 -78 2 -80 0z"/>
<path d="M19437 10943 c-80 -50 -147 -135 -206 -258 -22 -47 -41 -90 -41 -95
0 -5 -11 -29 -24 -54 -14 -26 -23 -46 -21 -46 3 0 -28 -76 -55 -135 -28 -60
-102 -243 -105 -257 -4 -21 13 -23 52 -6 41 17 63 38 63 60 0 10 5 18 11 18 5
0 8 3 6 8 -7 11 12 54 22 50 5 -1 27 -27 50 -55 45 -58 73 -79 111 -86 14 -3
30 -6 35 -8 15 -5 105 23 105 32 0 5 5 9 11 9 13 0 43 29 37 36 -3 2 -27 -6
-53 -19 -40 -21 -52 -23 -77 -13 -16 6 -36 18 -44 26 -7 8 -24 27 -37 41 -14
14 -30 35 -36 47 -7 14 -21 22 -37 22 l-25 0 21 28 c36 46 150 162 177 179 14
10 32 18 40 19 19 3 17 -41 -4 -74 -26 -43 -121 -131 -148 -138 -14 -3 -25
-10 -25 -16 0 -5 8 -7 18 -4 9 2 28 8 41 11 62 18 183 110 205 155 12 23 13
34 8 82 -2 20 -61 39 -94 30 -60 -15 -161 -93 -205 -159 -27 -41 -32 -24 -10
33 19 48 31 62 82 97 133 90 272 260 289 351 7 36 -12 84 -38 98 -32 19 -59
16 -99 -9z m79 -63 c2 -69 -83 -208 -191 -312 -23 -23 -55 -41 -55 -33 0 4 12
32 26 63 64 141 89 192 96 192 4 0 8 5 8 11 0 6 19 33 41 61 45 53 73 60 75
18z"/>
<path d="M1088 10562 c-34 -3 -38 -6 -39 -30 0 -34 0 -263 0 -278 1 -12 49
-25 55 -15 5 8 64 6 72 -2 3 -3 17 -2 30 3 14 6 24 6 24 0 0 -5 12 -5 30 0 17
5 30 5 30 0 0 -5 13 -5 30 0 17 5 30 6 30 2 0 -6 208 -7 218 -2 8 5 83 2 88
-3 3 -3 17 -2 30 3 13 5 26 6 29 0 3 -5 18 -5 35 0 17 5 30 5 30 0 0 -5 13 -5
29 0 16 4 32 6 35 2 4 -3 25 -5 49 -4 23 2 47 3 52 3 6 0 29 -1 53 -3 23 -2
42 0 42 4 0 4 6 5 13 2 21 -8 117 -10 117 -2 0 4 10 4 22 -1 13 -4 35 -5 50
-1 14 5 29 6 31 4 7 -7 87 -11 87 -4 0 7 69 5 76 -3 3 -3 16 -2 29 3 13 5 26
6 29 3 6 -6 87 -8 111 -3 6 1 15 1 20 0 19 -4 127 0 135 5 5 3 11 1 15 -4 4
-7 15 -7 30 -1 15 6 25 6 25 0 0 -5 12 -5 30 0 17 5 30 5 30 0 0 -5 13 -5 30
0 17 5 30 6 30 2 0 -8 203 -7 216 0 5 3 18 2 29 -2 11 -4 30 -4 41 1 12 4 25
5 28 1 8 -7 123 -5 136 3 5 3 11 1 15 -4 4 -7 15 -7 30 -1 15 6 25 6 25 0 0
-5 12 -5 30 0 17 5 30 5 30 0 0 -5 13 -5 30 0 17 5 30 6 30 2 0 -6 203 -7 220
-2 7 3 59 1 108 -2 23 -2 42 0 42 4 0 4 6 5 13 2 21 -8 117 -10 117 -2 0 4 10
4 22 -1 13 -4 35 -5 50 -1 14 5 29 6 31 4 7 -7 87 -11 87 -4 0 7 69 5 76 -3 3
-3 17 -2 30 3 13 5 25 6 28 2 3 -5 30 -5 61 -2 31 3 58 3 61 -2 3 -4 16 -3 29
2 14 5 27 5 30 0 3 -5 18 -5 35 0 17 5 30 5 30 0 0 -5 13 -5 29 0 16 4 32 6
35 3 9 -9 88 -10 112 -1 12 3 25 4 28 0 8 -7 123 -5 136 3 5 3 11 1 15 -4 4
-7 15 -7 30 -1 15 6 25 6 25 0 0 -5 12 -5 30 0 17 5 30 5 30 0 0 -5 13 -5 30
0 17 5 30 6 30 2 0 -6 208 -7 218 -2 8 5 83 2 88 -3 3 -3 17 -2 30 3 13 5 26
6 29 0 3 -5 18 -5 35 0 17 5 30 5 30 0 0 -5 13 -5 29 0 16 4 32 6 35 2 4 -3
25 -5 49 -4 23 2 47 3 52 3 6 0 29 -1 53 -3 23 -2 42 0 42 4 0 4 6 5 13 2 21
-8 117 -10 117 -2 0 4 10 4 23 -1 12 -4 33 -5 47 -1 14 4 35 3 47 -1 13 -5 25
-4 28 2 4 5 13 6 22 1 8 -5 33 -6 54 -2 22 4 42 4 45 -1 2 -4 15 -4 28 1 13 5
27 6 30 3 6 -6 87 -8 111 -3 6 1 15 1 20 0 19 -4 127 0 135 5 5 3 11 1 15 -4
4 -7 15 -7 30 -1 15 6 25 6 25 0 0 -5 12 -5 30 0 17 5 30 5 30 0 0 -5 13 -5
30 0 17 5 30 6 30 2 0 -8 203 -7 216 0 5 3 18 2 29 -2 11 -4 30 -4 41 1 12 4
25 5 28 1 8 -7 123 -5 136 3 5 3 11 1 15 -4 4 -7 15 -7 30 -1 15 6 25 6 25 0
0 -5 12 -5 30 0 17 5 30 5 30 0 0 -5 13 -5 30 0 17 5 30 6 30 2 0 -6 203 -7
220 -2 7 3 59 1 108 -2 23 -2 42 0 42 4 0 4 6 5 13 2 21 -8 117 -10 117 -2 0
4 10 4 22 -1 13 -4 35 -5 50 -1 14 5 29 6 31 4 7 -7 87 -11 87 -4 0 7 69 5 76
-3 3 -3 17 -2 30 3 13 5 25 6 28 2 3 -5 30 -5 61 -2 31 3 58 3 61 -2 3 -4 16
-3 29 2 14 5 27 5 30 0 3 -5 18 -5 35 0 17 5 30 5 30 0 0 -5 13 -5 29 0 16 4
32 6 35 3 9 -9 88 -10 112 -1 12 3 25 4 28 0 8 -7 123 -5 136 3 5 3 11 1 15
-4 4 -7 15 -7 30 -1 15 6 25 6 25 0 0 -5 12 -5 30 0 17 5 30 5 30 0 0 -5 13
-5 30 0 16 5 30 6 30 2 0 -6 208 -7 218 -2 8 5 83 2 88 -3 3 -3 17 -2 30 3 13
5 26 6 29 0 3 -5 18 -5 35 0 17 5 30 5 30 0 0 -5 13 -5 29 0 16 4 32 6 35 2 4
-3 25 -5 49 -4 23 2 47 3 52 3 6 0 29 -1 53 -3 23 -2 42 0 42 4 0 4 6 5 13 2
21 -8 117 -10 117 -2 0 4 10 4 22 -1 13 -4 35 -5 50 -1 14 5 29 6 31 4 7 -7
87 -11 87 -4 0 7 69 5 76 -3 3 -3 17 -2 30 3 13 5 25 6 28 2 3 -5 30 -5 61 -2
31 3 58 3 61 -2 3 -4 16 -3 29 2 14 5 27 5 30 0 3 -5 18 -5 35 0 17 5 30 5 30
0 0 -5 13 -5 29 0 16 4 32 6 35 3 9 -9 88 -10 112 -1 12 3 25 4 28 0 8 -7 123
-5 136 3 5 3 11 1 15 -4 4 -7 15 -7 30 -1 15 6 25 6 25 0 0 -5 12 -5 30 0 17
5 30 5 30 0 0 -5 13 -5 30 0 17 5 30 6 30 2 0 -6 208 -7 218 -2 8 5 83 2 88
-3 3 -3 17 -2 30 3 13 5 26 6 29 0 3 -5 18 -5 35 0 17 5 30 5 30 0 0 -5 13 -5
29 0 16 4 32 5 36 2 7 -7 102 -5 114 3 5 3 12 1 16 -4 3 -7 15 -7 30 -1 14 5
27 5 30 0 3 -5 18 -5 35 0 17 5 30 5 30 0 0 -5 13 -5 29 0 16 4 32 6 35 3 9
-9 88 -10 112 -1 12 3 25 4 28 0 8 -7 123 -5 136 3 5 3 11 1 15 -4 4 -7 15 -7
30 -1 15 6 25 6 25 0 0 -5 12 -5 30 0 17 5 30 5 30 0 0 -5 13 -5 30 0 16 5 30
6 30 2 0 -6 208 -7 218 -2 8 5 83 2 88 -3 3 -3 17 -2 30 3 13 5 26 6 29 0 3
-5 18 -5 35 0 17 5 30 5 30 0 0 -5 13 -5 29 0 16 4 32 5 36 2 7 -7 102 -5 114
3 5 3 12 1 16 -4 3 -7 15 -7 30 -1 14 5 27 5 30 0 3 -5 18 -5 35 0 17 5 30 5
30 0 0 -5 13 -5 29 0 16 4 32 6 35 3 9 -9 88 -10 112 -1 12 3 25 4 28 0 8 -7
123 -5 136 3 5 3 11 1 15 -4 4 -7 15 -7 30 -1 15 6 25 6 25 0 0 -5 12 -5 30 0
17 5 30 5 30 0 0 -5 13 -5 30 0 16 5 30 6 30 2 0 -6 208 -7 218 -2 8 5 83 2
88 -3 3 -3 17 -2 30 3 13 5 26 6 29 0 3 -5 18 -5 35 0 17 5 30 5 30 0 0 -5 13
-5 29 0 16 4 32 5 36 2 7 -7 102 -5 114 3 5 3 12 1 16 -4 3 -7 15 -7 30 -1 14
5 27 5 30 0 3 -5 18 -5 35 0 17 5 30 5 30 0 0 -5 13 -5 29 0 16 4 32 6 35 3 9
-9 88 -10 112 -1 12 3 25 4 28 0 8 -7 123 -5 136 3 5 3 11 1 15 -4 4 -7 15 -7
30 -1 15 6 25 6 25 0 0 -5 12 -5 30 0 17 5 30 5 30 0 0 -5 13 -5 30 0 16 5 30
6 30 2 0 -6 208 -7 218 -2 8 5 83 2 88 -3 3 -3 17 -2 30 3 13 5 26 6 29 0 3
-5 18 -5 35 0 17 5 30 5 30 0 0 -5 13 -5 29 0 16 4 32 6 35 2 4 -3 25 -5 49
-4 23 2 47 3 52 3 6 0 29 -1 53 -3 23 -2 42 0 42 4 0 4 6 5 13 2 21 -8 117
-10 117 -2 0 4 10 4 22 -1 13 -4 35 -5 50 -1 14 5 29 6 31 4 7 -7 87 -11 87
-4 0 7 69 5 76 -3 3 -3 17 -2 30 3 13 5 25 6 28 2 3 -5 30 -5 61 -2 31 3 58 3
61 -2 3 -4 16 -3 29 2 14 5 27 5 30 0 3 -5 18 -5 35 0 17 5 30 5 30 0 0 -5 13
-5 29 0 16 4 32 6 35 3 7 -7 195 -8 201 -1 3 2 27 2 55 -2 33 -4 50 -3 51 4 3
43 0 308 -4 312 -2 3 -141 4 -308 4 -167 -1 -313 -1 -324 -1 -11 0 -85 0 -165
0 -80 0 -152 -1 -160 0 -8 0 -1232 0 -2720 0 -1488 0 -2712 0 -2720 0 -8 0
-80 0 -160 0 -80 0 -152 -1 -160 0 -8 0 -368 0 -800 0 -432 0 -792 0 -800 0
-8 0 -80 0 -160 0 -80 0 -152 -1 -160 0 -8 0 -368 0 -800 0 -432 0 -792 0
-800 0 -8 0 -80 0 -160 0 -80 0 -152 -1 -160 0 -8 0 -368 0 -800 0 -432 0
-792 0 -800 0 -8 0 -80 0 -160 0 -80 0 -152 -1 -160 0 -8 0 -368 0 -800 0
-432 0 -792 0 -800 0 -8 0 -80 0 -160 0 -80 0 -149 -1 -155 0 -77 2 -1040 5
-1067 3z m5138 -42 c0 -12 -4 -16 -9 -11 -5 5 -6 14 -3 20 10 15 12 14 12 -9z
m4 -34 c0 -3 -4 -8 -10 -11 -5 -3 -10 -1 -10 4 0 6 5 11 10 11 6 0 10 -2 10
-4z m0 -60 c0 -3 -4 -8 -10 -11 -5 -3 -10 -1 -10 4 0 6 5 11 10 11 6 0 10 -2
10 -4z m0 -60 c0 -3 -4 -8 -10 -11 -5 -3 -10 -1 -10 4 0 6 5 11 10 11 6 0 10
-2 10 -4z m0 -60 c0 -3 -4 -8 -10 -11 -5 -3 -10 -1 -10 4 0 6 5 11 10 11 6 0
10 -2 10 -4z"/>
<path d="M20343 10549 c-27 -8 -125 -94 -159 -140 -55 -75 -83 -201 -61 -269
15 -44 67 -72 110 -59 46 13 112 56 146 94 47 54 26 62 -25 10 -48 -50 -115
-86 -145 -78 -17 5 -19 12 -14 49 3 23 10 56 16 71 6 15 15 37 19 48 17 45 75
155 82 155 5 0 8 5 8 11 0 16 48 59 65 59 25 0 25 -17 0 -44 -39 -42 -28 -86
21 -86 83 0 94 134 14 175 -32 17 -33 17 -77 4z"/>
<path d="M22944 10521 c-55 -19 -76 -54 -28 -45 15 3 31 7 35 10 5 2 12 -4 18
-13 9 -18 -18 -115 -47 -169 -15 -27 -82 -173 -93 -201 -22 -59 57 -31 100 36
17 25 42 58 56 73 14 15 25 32 25 38 0 5 4 10 8 10 4 0 15 12 25 28 25 41 105
124 115 120 5 -1 -26 -77 -69 -166 -44 -90 -77 -167 -74 -171 5 -9 43 -7 67 3
9 4 37 40 62 79 25 40 54 81 64 92 10 11 25 31 34 44 24 34 110 123 115 118 2
-2 -12 -38 -30 -78 -73 -158 -86 -229 -47 -261 29 -24 85 -23 125 2 34 21 85
81 85 99 0 18 -19 12 -38 -11 -82 -104 -148 -104 -108 1 9 25 18 51 20 56 3
13 48 109 99 212 45 92 43 114 -9 91 -42 -19 -50 -25 -135 -110 -43 -43 -80
-78 -82 -78 -2 0 18 42 44 94 54 106 51 117 -27 88 -56 -21 -217 -175 -238
-227 -3 -10 -9 -15 -12 -12 -4 3 3 25 14 49 86 178 61 245 -74 199z"/>
<path d="M19660 10509 c-26 -16 -30 -22 -20 -34 9 -11 17 -12 32 -4 31 16 56
19 61 5 5 -14 -41 -117 -57 -128 -6 -4 -7 -8 -2 -8 5 0 3 -6 -3 -14 -38 -45
-93 -188 -83 -216 3 -8 16 -25 28 -37 20 -18 29 -20 55 -13 18 5 39 16 49 25
9 8 20 15 25 15 4 0 22 16 41 35 18 19 35 35 38 35 3 0 -5 -23 -16 -51 -19
-45 -32 -58 -112 -111 -174 -115 -246 -213 -203 -272 35 -48 134 -18 219 68
56 56 78 82 78 90 0 3 16 30 35 60 19 30 35 62 35 70 0 8 5 18 10 21 6 3 10
14 10 23 0 18 23 42 58 61 26 14 52 40 52 52 0 16 -23 10 -47 -13 -13 -12 -23
-17 -23 -12 0 10 62 187 103 296 18 47 22 68 14 71 -16 5 -67 -13 -67 -23 0
-5 -9 -29 -20 -54 -11 -26 -19 -47 -18 -49 1 -1 -15 -34 -36 -73 -58 -112
-169 -224 -220 -224 -27 0 -19 26 53 164 113 216 113 255 4 261 -27 2 -52 -4
-73 -16z m74 -560 c-39 -78 -37 -76 -91 -137 -63 -70 -120 -62 -88 14 12 30
92 116 135 147 14 9 34 24 45 32 36 26 36 16 -1 -56z"/>
<path d="M24008 10524 c-2 -2 -20 -4 -39 -5 -51 -3 -119 -20 -119 -31 0 -5 -3
-7 -8 -5 -4 3 -30 -10 -57 -29 -124 -83 -205 -200 -206 -297 -1 -30 4 -64 10
-75 12 -23 69 -39 98 -27 10 3 18 5 18 3 0 -3 46 37 96 84 16 14 29 31 29 36
0 6 5 14 11 18 7 4 9 0 5 -12 -28 -91 -2 -140 69 -131 67 7 173 103 146 130
-8 8 -20 2 -44 -25 -17 -20 -44 -43 -58 -52 -26 -16 -27 -16 -33 7 -3 15 4 47
18 83 55 135 79 190 88 202 6 6 8 12 4 12 -3 0 5 23 19 50 14 28 24 50 23 50
-2 0 -17 4 -35 9 -17 5 -33 7 -35 5z m-65 -81 c-7 -82 -205 -343 -261 -343
-26 0 -37 17 -23 34 6 7 8 15 5 18 -7 8 24 73 66 138 53 83 103 139 155 171
42 27 61 21 58 -18z"/>
<path d="M24609 10521 c-7 -2 -20 -10 -27 -17 -7 -8 -21 -19 -30 -26 -24 -18
-87 -112 -116 -173 -30 -63 -103 -160 -143 -191 -62 -47 -128 -27 -74 23 28
27 36 67 16 87 -23 23 -52 20 -80 -9 -44 -43 -24 -133 33 -153 47 -16 83 -2
137 52 45 44 125 155 125 172 0 12 35 79 47 92 8 8 20 26 27 40 16 32 53 66
80 76 16 5 17 4 6 -9 -7 -8 -10 -15 -7 -15 3 0 -24 -66 -59 -147 -73 -166 -83
-210 -53 -242 21 -22 29 -24 67 -21 61 5 178 93 166 125 -8 20 -17 19 -32 -5
-18 -29 -91 -80 -107 -74 -14 6 -5 32 50 149 82 173 115 251 111 262 -5 12
-103 16 -137 4z"/>
<path d="M24938 10510 c-24 -6 -39 -40 -16 -40 40 -1 39 -16 -5 -111 -76 -161
-86 -187 -96 -228 -8 -35 -6 -42 15 -62 19 -17 31 -21 60 -16 29 5 53 22 111
81 71 72 74 74 68 43 -12 -69 -12 -78 7 -102 30 -39 75 -32 139 20 31 25 79
88 79 103 0 23 -29 11 -52 -20 -38 -54 -61 -78 -75 -78 -7 0 -13 -5 -13 -10 0
-7 -6 -6 -13 2 -15 13 -11 41 16 113 12 34 111 245 138 297 8 14 3 15 -34 11
-44 -6 -76 -33 -77 -65 0 -10 -4 -18 -8 -18 -5 0 -16 -17 -24 -37 -30 -76
-227 -311 -249 -297 -16 9 -10 33 27 112 20 42 47 102 61 132 13 30 36 76 49
103 14 26 24 53 21 60 -4 12 -85 17 -129 7z"/>
<path d="M25503 10503 c-8 -21 6 -44 24 -41 24 4 22 -1 -31 -112 -25 -52 -46
-101 -46 -107 0 -7 -5 -13 -12 -13 -6 0 -8 -3 -5 -7 4 -3 2 -12 -4 -20 -6 -7
-8 -13 -4 -13 4 0 3 -6 -3 -13 -15 -17 -23 -66 -16 -94 9 -32 66 -42 108 -17
34 20 126 110 126 123 0 5 6 11 14 14 12 5 12 0 5 -26 -14 -50 -11 -85 11
-107 44 -44 118 -9 198 94 25 33 28 46 8 46 -8 0 -38 -27 -66 -60 -58 -67 -85
-74 -85 -25 -1 17 5 40 12 52 7 12 13 27 13 33 0 6 32 76 70 157 39 80 70 146
68 148 -2 1 -22 0 -44 -3 -41 -4 -42 -5 -83 -87 -23 -46 -47 -90 -54 -97 -6
-7 -34 -42 -62 -78 -63 -81 -128 -150 -143 -150 -22 0 -22 20 -1 67 77 170
111 244 133 284 13 25 21 51 18 56 -10 16 -143 11 -149 -4z"/>
</g>
</svg>
