<?xml version="1.0" encoding="UTF-8"?>
<svg width="23px" height="23px" viewBox="0 0 23 23" version="1.1" xmlns="http://www.w3.org/2000/svg" xmlns:xlink="http://www.w3.org/1999/xlink">
    <!-- Generator: Sketch 50.2 (55047) - http://www.bohemiancoding.com/sketch -->
    <title>2</title>
    <desc>Created with Sketch.</desc>
    <defs></defs>
    <g id="Page-1" stroke="none" stroke-width="1" fill="none" fill-rule="evenodd">
        <g id="icons-duplicates" fill-rule="nonzero">
            <g id="2">
                <path d="M20.1,23 L3.4,23 C1.8,23 0.6,21.7 0.6,20.2 L0.6,3.4 C0.6,1.8 1.9,0.6 3.4,0.6 L20.2,0.6 C21.8,0.6 23,1.9 23,3.4 L23,20.2 C23,21.7 21.7,23 20.1,23 Z" id="Shape" fill="#D14A48"></path>
                <g id="Group" transform="translate(6.000000, 6.000000)" fill="#FFFFFF">
                    <path d="M5.5,0.9 C2.7,0.9 0.4,2 0.4,3.4 C0.4,3.6 0.5,3.8 0.6,4 C0.7,4.6 1,6.6 1.1,7.4 C1.1,8.3 1.7,9.1 2.6,9.6 C2.5,9.7 2.5,9.8 2.5,9.9 C2.5,10.5 3.8,11 5.5,11 C7.2,11 8.5,10.5 8.5,9.9 C8.5,9.8 8.5,9.8 8.4,9.7 C9.4,9.2 9.9,8.4 10,7.5 C10,6.7 10.4,4.6 10.5,4.1 C10.6,3.9 10.6,3.7 10.6,3.5 C10.6,2 8.3,0.9 5.5,0.9 Z M5.4,5.2 C3.2,5.2 1.4,4.4 1.4,3.5 C1.4,2.6 3.2,1.8 5.4,1.8 C7.6,1.8 9.4,2.6 9.4,3.5 C9.5,4.4 7.7,5.2 5.4,5.2 Z" id="Shape"></path>
                    <path d="M6.2,2.4 C6.4,2.4 6.5,2.5 6.4,2.7 C6.4,2.7 6.1,3 5.9,3.2 C5.7,3.4 5.4,3.5 5.4,3.5 C5.2,3.6 5.1,3.5 5.1,3.3 C5.1,3.1 5.1,2.8 5.2,2.6 C5.2,2.4 5.3,2.3 5.6,2.3 C5.7,2.3 5.9,2.3 6.2,2.4 Z" id="Shape"></path>
                    <path d="M6.4,4.6 C6.1,4.6 6,4.5 6.1,4.3 C6.1,4.3 6.3,3.8 6.5,3.5 C6.7,3.2 7,2.9 7,2.9 C7.2,2.7 7.4,2.8 7.4,3 C7.5,3.3 7.6,3.6 7.6,3.9 C7.6,4.2 7.6,4.3 7.2,4.5 C7,4.5 6.7,4.6 6.4,4.6 Z" id="Shape"></path>
                    <path d="M4.5,4.3 C4.5,4.5 4.4,4.6 4.2,4.5 C4.2,4.5 3.9,4.3 3.7,4.1 C3.5,3.9 3.3,3.7 3.3,3.7 C3.2,3.6 3.3,3.4 3.4,3.4 C3.6,3.4 3.8,3.4 4,3.4 C4.2,3.4 4.3,3.5 4.3,3.7 C4.5,3.9 4.6,4 4.5,4.3 Z" id="Shape"></path>
                </g>
            </g>
        </g>
    </g>
</svg>