<?xml version="1.0" encoding="UTF-8"?>
<svg width="23px" height="23px" viewBox="0 0 23 23" version="1.1" xmlns="http://www.w3.org/2000/svg" xmlns:xlink="http://www.w3.org/1999/xlink">
    <!-- Generator: Sketch 50.2 (55047) - http://www.bohemiancoding.com/sketch -->
    <title>snag</title>
    <desc>Created with Sketch.</desc>
    <defs></defs>
    <g id="Page-1" stroke="none" stroke-width="1" fill="none" fill-rule="evenodd">
        <g id="1" fill-rule="nonzero">
            <g id="snag">
                <path d="M20.1,23 L3.4,23 C1.8,23 0.6,21.7 0.6,20.2 L0.6,3.4 C0.6,1.8 1.9,0.6 3.4,0.6 L20.2,0.6 C21.8,0.6 23,1.9 23,3.4 L23,20.2 C23,21.7 21.7,23 20.1,23 Z" id="Shape" fill="#D14A48"></path>
                <g id="Group" transform="translate(3.000000, 8.000000)" fill="#FFFFFF">
                    <path d="M16.4,2 C16.2,1.9 16,1.9 15.8,2 L15,2.6 C14.5,1.5 13.4,0.7 12.1,0.7 L4.8,0.7 C3.8,0.7 2.6,1.1 1.7,2.1 C0.2,3.6 -0.1,5.7 1,6.8 C1.4,7.2 1.9,7.4 2.5,7.5 L2.6,7.5 C2.6,7.5 2.6,7.5 2.6,7.5 C2.6,7.5 2.6,7.5 2.6,7.5 L11.9,7.5 C13.3,7.5 14.5,6.6 15,5.3 L15.7,5.8 C15.8,5.9 15.9,5.9 16,5.9 C16.1,5.9 16.2,5.9 16.3,5.8 C16.5,5.7 16.6,5.5 16.6,5.3 L16.6,2.5 C16.7,2.3 16.6,2.1 16.4,2 Z M4.5,5.2 C3.9,5.8 3.1,6.2 2.5,6.2 C2.5,6.2 2.4,6.2 2.4,6.2 C2,6.2 1.7,6.1 1.5,5.9 C0.9,5.3 1.2,3.9 2.2,2.9 C2.8,2.3 3.6,1.9 4.3,1.9 C4.3,1.9 4.3,1.9 4.4,1.9 L4.5,1.9 C4.8,1.9 5,2 5.2,2.2 C5.9,2.8 5.5,4.2 4.5,5.2 Z" id="Shape"></path>
                    <path d="M4.5,2.4 C4.5,2.4 4.5,2.4 4.5,2.4 C4.3,2.4 4.2,2.5 4,2.6 C3.8,2.8 3.7,3.1 3.9,3.2 C3.9,3.2 4,3.3 4.1,3.3 C4.1,3.3 4.1,3.3 4.1,3.3 C4.2,3.3 4.4,3.2 4.5,3.1 C4.7,2.9 4.8,2.6 4.6,2.5 C4.6,2.4 4.6,2.4 4.5,2.4 Z" id="Shape"></path>
                    <path d="M2.4,4.4 C2.4,4.4 2.4,4.4 2.4,4.4 C2.2,4.4 2.1,4.5 1.9,4.6 C1.7,4.8 1.6,5.1 1.8,5.2 C1.8,5.2 1.9,5.3 2,5.3 C2,5.3 2,5.3 2,5.3 C2.1,5.3 2.3,5.2 2.4,5.1 C2.6,4.9 2.7,4.6 2.5,4.5 C2.5,4.4 2.5,4.4 2.4,4.4 Z" id="Shape"></path>
                    <path d="M3.9,4.1 C3.9,4.1 3.9,4.1 3.9,4.1 C3.7,4.1 3.6,4.2 3.4,4.3 C3.2,4.5 3.1,4.8 3.3,4.9 C3.3,4.9 3.4,5 3.5,5 C3.5,5 3.5,5 3.5,5 C3.6,5 3.8,4.9 3.9,4.8 C4.1,4.6 4.2,4.3 4,4.2 C4,4.1 4,4.1 3.9,4.1 Z" id="Shape"></path>
                </g>
            </g>
        </g>
    </g>
</svg>