<?xml version="1.0" encoding="UTF-8"?>
<svg width="23px" height="23px" viewBox="0 0 23 23" version="1.1" xmlns="http://www.w3.org/2000/svg" xmlns:xlink="http://www.w3.org/1999/xlink">
    <!-- Generator: Sketch 50.2 (55047) - http://www.bohemiancoding.com/sketch -->
    <title>1</title>
    <desc>Created with Sketch.</desc>
    <defs></defs>
    <g id="Page-1" stroke="none" stroke-width="1" fill="none" fill-rule="evenodd">
        <g id="icons-duplicates" transform="translate(0.000000, -1.000000)">
            <g id="1" transform="translate(0.000000, 1.000000)">
                <path d="M20.1,23 L3.4,23 C1.8,23 0.6,21.7 0.6,20.2 L0.6,3.4 C0.6,1.8 1.9,0.6 3.4,0.6 L20.2,0.6 C21.8,0.6 23,1.9 23,3.4 L23,20.2 C23,21.7 21.7,23 20.1,23 Z" id="Shape" fill="#D14A48" fill-rule="nonzero"></path>
                <g id="Group" transform="translate(5.000000, 5.000000)">
                    <circle id="Oval" cx="5.2" cy="7.8" r="1"></circle>
                    <circle id="Oval" cx="3.8" cy="9.3" r="1"></circle>
                    <circle id="Oval" cx="4.8" cy="4" r="1"></circle>
                    <path d="M10.3,0.5 C10.5,0.5 10.8,0.6 10.9,0.8 L11.5,2.1 C11.1,2.2 10.9,2.6 10.9,3 C10.9,3.5 11.3,4 11.9,4 C12.1,4 12.3,3.9 12.4,3.8 L13.7,6.4 C13.8,6.7 13.7,6.9 13.4,6.8 L10.7,6.4 C10.9,6.2 11,6 11,5.7 C11,5.2 10.6,4.7 10,4.7 C9.5,4.7 9,5.1 9,5.7 C9,5.9 9,6 9.1,6.1 L0.7,4.8 C0.4,4.8 0.4,4.6 0.7,4.5 L6,2.2 C6,3 6.7,3.6 7.4,3.6 C8.3,3.6 9,2.9 9,2 C9,1.7 8.9,1.3 8.7,1.1 L10.1,0.5 C10.1,0.5 10.2,0.5 10.3,0.5 L0.3,0.5 L0.3,5.1 L13.8,7.3 L13.1,10.9 C13,11.2 12.7,11.5 12.4,11.4 L10.3,11.3 C10.3,11.2 10.3,11.2 10.3,11.1 C10.3,10.6 9.9,10.1 9.3,10.1 C8.8,10.1 8.3,10.5 8.3,11.1 C8.3,11.1 8.3,11.2 8.3,11.2 L1.4,10.8 C1.1,10.8 0.8,10.5 0.8,10.2 L0.7,9.2 C0.9,9.3 1.1,9.4 1.3,9.4 C1.9,9.4 2.4,8.9 2.4,8.3 C2.4,7.7 1.9,7.2 1.3,7.2 C1,7.2 0.7,7.3 0.5,7.6 L0.2,5.2 L0.2,11.6 L13.7,11.6 L13.7,0.6 L10.3,0.6 L10.3,0.5 Z" id="Shape"></path>
                    <path d="M8.7,1.1 C8.8,1.4 9,1.7 9,2 C9,2.9 8.3,3.5 7.5,3.5 C6.7,3.5 6.1,2.9 6,2.2 L0.7,4.5 C0.4,4.6 0.4,4.8 0.7,4.8 L9.1,6.1 C9,6 9,5.8 9,5.7 C9,5.2 9.4,4.7 10,4.7 C10.5,4.7 11,5.1 11,5.7 C11,6 10.9,6.2 10.7,6.4 L13.4,6.8 C13.7,6.8 13.9,6.7 13.7,6.4 L12.4,3.8 C12.2,3.9 12,4 11.8,4 C11.3,4 10.8,3.6 10.8,3 C10.8,2.6 11.1,2.2 11.4,2.1 L10.8,0.8 C10.7,0.6 10.5,0.5 10.2,0.5 C10.1,0.5 10,0.5 10,0.5 L8.7,1.1 Z M4.8,4.3 C4.6,4.3 4.5,4.2 4.5,4 C4.5,3.8 4.6,3.7 4.8,3.7 C5,3.7 5.1,3.8 5.1,4 C5.1,4.1 5,4.3 4.8,4.3 Z" id="Shape" fill="#FFFFFF" fill-rule="nonzero"></path>
                    <path d="M1.3,7.1 C1.9,7.1 2.4,7.6 2.4,8.2 C2.4,8.8 1.9,9.3 1.3,9.3 C1.1,9.3 0.8,9.2 0.7,9.1 L0.8,10.1 C0.8,10.4 1.1,10.7 1.4,10.7 L8.3,11.1 C8.3,11.1 8.3,11 8.3,11 C8.3,10.5 8.7,10 9.3,10 C9.8,10 10.3,10.4 10.3,11 C10.3,11.1 10.3,11.1 10.3,11.2 L12.4,11.3 C12.7,11.3 13,11.1 13.1,10.8 L13.8,7.2 L0.2,5.1 L0.5,7.5 C0.7,7.3 1,7.1 1.3,7.1 Z M5.2,7.1 C5.6,7.1 5.9,7.4 5.9,7.8 C5.9,8.2 5.6,8.5 5.2,8.5 C4.8,8.5 4.5,8.2 4.5,7.8 C4.5,7.4 4.8,7.1 5.2,7.1 Z M3.8,9 C4,9 4.1,9.1 4.1,9.3 C4.1,9.5 4,9.6 3.8,9.6 C3.6,9.6 3.5,9.5 3.5,9.3 C3.5,9.2 3.6,9 3.8,9 Z" id="Shape" fill="#FFFFFF" fill-rule="nonzero"></path>
                </g>
            </g>
        </g>
    </g>
</svg>