<?xml version="1.0" encoding="UTF-8"?>
<svg width="23px" height="23px" viewBox="0 0 23 23" version="1.1" xmlns="http://www.w3.org/2000/svg" xmlns:xlink="http://www.w3.org/1999/xlink">
    <!-- Generator: Sketch 50.2 (55047) - http://www.bohemiancoding.com/sketch -->
    <title>5</title>
    <desc>Created with Sketch.</desc>
    <defs></defs>
    <g id="Page-1" stroke="none" stroke-width="1" fill="none" fill-rule="evenodd">
        <g id="icons-duplicates" fill-rule="nonzero">
            <g id="5">
                <path d="M20.1,23 L3.4,23 C1.8,23 0.6,21.7 0.6,20.2 L0.6,3.4 C0.6,1.8 1.9,0.6 3.4,0.6 L20.2,0.6 C21.8,0.6 23,1.9 23,3.4 L23,20.2 C23,21.7 21.7,23 20.1,23 Z" id="Shape" fill="#D14A48"></path>
                <g id="Group" transform="translate(4.000000, 6.000000)">
                    <path d="M2.3,0.4 C2.5,0.3 3.5,0.8 4.3,1.2 C5.2,1.6 6.2,2.2 6.6,3 C7,3.8 7.1,4.5 7.7,4.5 C8.3,4.5 8.7,3.8 9.1,3.1 C9.6,2.1 11,1.4 12.1,0.9 C12.9,0.5 13.3,0.3 13.4,0.5 C13.5,0.6 12.9,1.3 13,1.5 C13.1,1.7 13.3,1.9 13.6,1.9 C13.9,1.9 14.2,1.8 14.1,2.1 C14,2.4 13.6,2.7 13.7,3 C13.8,3.3 14.6,3.2 14.7,3.5 C14.8,3.8 14.1,4.1 14.1,4.4 C14.1,4.7 14.9,4.8 14.9,5.1 C14.9,5.4 14.2,5.6 14.2,5.9 C14.2,6.2 14.9,6.4 14.9,6.7 C14.9,7 14.1,7.1 14.1,7.4 C14.1,7.6 14.7,8 14.6,8.4 C14.5,8.7 13.8,8.6 13.7,8.8 C13.6,9 14.2,9.5 14,9.8 C13.8,10.2 13.1,9.8 13,10.1 C12.9,10.4 13.5,11.2 13.3,11.3 C13.2,11.5 11.7,10.8 11.3,10.6 C10.1,10 9.8,9.8 9.2,8.8 C8.9,8 8.5,7 7.9,7 C7.4,7 7,7.5 6.7,8.2 C6.2,9.3 5.5,9.6 4.8,10.1 C4.1,10.6 2.2,11.4 2.2,11.2 C2.2,11 2.7,10.5 2.6,10.2 C2.5,9.9 1.6,10.1 1.5,9.8 C1.4,9.5 2.2,9.2 2.1,8.9 C2.1,8.4 1,8.4 1,8.1 C1,7.8 1.8,7.6 1.7,7.3 C1.6,7 0.6,6.9 0.6,6.6 C0.6,6.3 1.4,6.3 1.4,6 C1.4,5.7 0.5,5.2 0.6,5 C0.6,4.7 1.5,4.7 1.5,4.5 C1.5,4.3 0.9,3.9 0.9,3.5 C0.9,3.1 1.7,3.3 1.8,3 C1.9,2.7 1.3,2.4 1.4,2 C1.5,1.8 2.3,1.9 2.5,1.6 C2.7,1.3 1.8,0.7 2.3,0.4 Z" id="Shape" fill="#FFFFFF"></path>
                    <path d="M3.7,6.8 C3.9,6.5 4.1,6.3 4.3,6 C4.5,5.8 4.7,5.6 5,5.4 C5.3,5.2 5.6,5.1 5.9,5 C6.2,4.9 6.6,4.9 6.9,5 C7.3,5.1 7.6,5.1 8,5.2 C8.4,5.3 8.7,5.4 9,5.4 C9.3,5.5 9.6,5.5 9.9,5.4 C10.1,5.4 10.3,5.3 10.4,5.1 C10.6,5 10.7,4.8 10.8,4.6 C10.9,4.4 11.1,4.2 11.2,3.9 L11.3,4 C11.1,4.3 10.9,4.6 10.7,4.9 C10.5,5.1 10.3,5.4 10,5.6 C9.7,5.8 9.4,6 9.1,6 C8.8,6.1 8.5,6 8.2,6 C7.9,5.9 7.5,5.9 7.1,5.8 C6.7,5.7 6.4,5.6 6,5.6 C5.6,5.5 5.3,5.5 5,5.6 C4.8,5.6 4.6,5.7 4.5,5.8 C4.4,5.9 4.2,6 4.1,6.2 C4,6.3 3.9,6.5 3.8,6.7 L3.7,6.8 Z" id="Shape" fill="#C24E45"></path>
                </g>
            </g>
        </g>
    </g>
</svg>