<?xml version="1.0" encoding="UTF-8"?>
<svg width="23px" height="23px" viewBox="0 0 23 23" version="1.1" xmlns="http://www.w3.org/2000/svg" xmlns:xlink="http://www.w3.org/1999/xlink">
    <!-- Generator: Sketch 50.2 (55047) - http://www.bohemiancoding.com/sketch -->
    <title>6</title>
    <desc>Created with Sketch.</desc>
    <defs></defs>
    <g id="Page-1" stroke="none" stroke-width="1" fill="none" fill-rule="evenodd">
        <g id="icons-duplicates" fill-rule="nonzero">
            <g id="6">
                <path d="M20.1,23 L3.4,23 C1.8,23 0.6,21.7 0.6,20.2 L0.6,3.4 C0.6,1.8 1.9,0.6 3.4,0.6 L20.2,0.6 C21.8,0.6 23,1.9 23,3.4 L23,20.2 C23,21.7 21.7,23 20.1,23 Z" id="Shape" fill="#D14A48"></path>
                <g id="Group" transform="translate(7.000000, 3.000000)" fill="#FFFFFF">
                    <path d="M6.3,7.1 L6,6.3 C5.7,5.2 5.4,3.2 5.7,2 C5.7,1.8 5.7,1.6 5.6,1.5 C5.6,1.5 5.6,1.5 5.6,1.5 C5.8,1.3 6,1.1 6,0.9 C6,0.6 5.8,0.3 5.4,0.3 L4.1,0.3 C3.8,0.3 3.5,0.5 3.5,0.9 C3.5,1.1 3.6,1.3 3.9,1.4 C3.9,1.4 3.9,1.4 3.9,1.4 C3.8,1.5 3.7,1.7 3.8,1.9 C4.1,3.1 3.8,5 3.5,6.2 L3.2,7 C1.7,7.9 0.6,10 0.6,12.5 C0.6,14 1,15.4 1.6,16.5 C1.8,16.9 2.3,17.1 2.7,17.1 L6.6,17.1 C7.1,17.1 7.5,16.9 7.7,16.5 C8.4,15.4 8.7,14.1 8.7,12.5 C8.9,10.1 7.8,8 6.3,7.1 Z M5,15.6 C4.4,16.1 3.4,15.9 2.7,15.1 C2,14.3 1.9,13.3 2.5,12.8 C3.1,12.3 4.1,12.5 4.8,13.3 C5.4,14 5.5,15.1 5,15.6 Z" id="Shape"></path>
                    <ellipse id="Oval" transform="translate(3.131320, 14.213340) rotate(-41.497459) translate(-3.131320, -14.213340) " cx="3.13132" cy="14.21334" rx="1" ry="1"></ellipse>
                </g>
            </g>
        </g>
    </g>
</svg>